<mxfile host="app.diagrams.net" modified="2021-11-29T22:57:27.905Z" agent="5.0 (Windows NT 10.0; Win64; x64) AppleWebKit/537.36 (KHTML, like Gecko) Chrome/96.0.4664.45 Safari/537.36" etag="7qHF1vD63D-6tX3c-Xlh" version="15.8.6" type="github">
  <diagram id="z4VoDaPM2JD8XKrFl1kn" name="Page-1">
    <mxGraphModel dx="1102" dy="582" grid="1" gridSize="10" guides="1" tooltips="1" connect="1" arrows="1" fold="1" page="1" pageScale="1" pageWidth="827" pageHeight="1169" math="0" shadow="0">
      <root>
        <mxCell id="0" />
        <mxCell id="1" parent="0" />
        <mxCell id="2tigNu3_jmeNTcZIYjep-3" value="" style="edgeStyle=orthogonalEdgeStyle;rounded=0;orthogonalLoop=1;jettySize=auto;html=1;" edge="1" parent="1" source="2tigNu3_jmeNTcZIYjep-1" target="2tigNu3_jmeNTcZIYjep-2">
          <mxGeometry relative="1" as="geometry" />
        </mxCell>
        <mxCell id="2tigNu3_jmeNTcZIYjep-1" value="Inicio" style="ellipse;whiteSpace=wrap;html=1;" vertex="1" parent="1">
          <mxGeometry x="95" width="130" height="80" as="geometry" />
        </mxCell>
        <mxCell id="2tigNu3_jmeNTcZIYjep-5" value="" style="edgeStyle=orthogonalEdgeStyle;rounded=0;orthogonalLoop=1;jettySize=auto;html=1;" edge="1" parent="1" source="2tigNu3_jmeNTcZIYjep-2" target="2tigNu3_jmeNTcZIYjep-4">
          <mxGeometry relative="1" as="geometry" />
        </mxCell>
        <mxCell id="2tigNu3_jmeNTcZIYjep-2" value="Digitar Data &lt;br&gt;Evento" style="shape=parallelogram;perimeter=parallelogramPerimeter;whiteSpace=wrap;html=1;fixedSize=1;" vertex="1" parent="1">
          <mxGeometry x="90" y="110" width="140" height="60" as="geometry" />
        </mxCell>
        <mxCell id="2tigNu3_jmeNTcZIYjep-7" value="" style="edgeStyle=orthogonalEdgeStyle;rounded=0;orthogonalLoop=1;jettySize=auto;html=1;" edge="1" parent="1" source="2tigNu3_jmeNTcZIYjep-4" target="2tigNu3_jmeNTcZIYjep-6">
          <mxGeometry relative="1" as="geometry" />
        </mxCell>
        <mxCell id="2tigNu3_jmeNTcZIYjep-11" value="" style="edgeStyle=orthogonalEdgeStyle;rounded=0;orthogonalLoop=1;jettySize=auto;html=1;" edge="1" parent="1" source="2tigNu3_jmeNTcZIYjep-4" target="2tigNu3_jmeNTcZIYjep-8">
          <mxGeometry relative="1" as="geometry" />
        </mxCell>
        <mxCell id="2tigNu3_jmeNTcZIYjep-4" value="Data Evento &amp;gt;&amp;nbsp;&lt;br&gt;Data Atual" style="rhombus;whiteSpace=wrap;html=1;" vertex="1" parent="1">
          <mxGeometry x="80" y="210" width="160" height="80" as="geometry" />
        </mxCell>
        <mxCell id="2tigNu3_jmeNTcZIYjep-14" value="" style="edgeStyle=orthogonalEdgeStyle;rounded=0;orthogonalLoop=1;jettySize=auto;html=1;" edge="1" parent="1" source="2tigNu3_jmeNTcZIYjep-6" target="2tigNu3_jmeNTcZIYjep-13">
          <mxGeometry relative="1" as="geometry" />
        </mxCell>
        <mxCell id="2tigNu3_jmeNTcZIYjep-6" value="SIM&lt;br&gt;Evento Permitido" style="rounded=0;whiteSpace=wrap;html=1;" vertex="1" parent="1">
          <mxGeometry x="294" y="220" width="120" height="60" as="geometry" />
        </mxCell>
        <mxCell id="2tigNu3_jmeNTcZIYjep-9" style="edgeStyle=orthogonalEdgeStyle;rounded=0;orthogonalLoop=1;jettySize=auto;html=1;entryX=0;entryY=0.5;entryDx=0;entryDy=0;" edge="1" parent="1" source="2tigNu3_jmeNTcZIYjep-8" target="2tigNu3_jmeNTcZIYjep-2">
          <mxGeometry relative="1" as="geometry">
            <mxPoint x="90" y="40" as="targetPoint" />
            <Array as="points">
              <mxPoint x="40" y="360" />
              <mxPoint x="40" y="140" />
            </Array>
          </mxGeometry>
        </mxCell>
        <mxCell id="2tigNu3_jmeNTcZIYjep-8" value="NÃO&lt;br&gt;Evento Não Permitido" style="rounded=0;whiteSpace=wrap;html=1;" vertex="1" parent="1">
          <mxGeometry x="100" y="330" width="120" height="60" as="geometry" />
        </mxCell>
        <mxCell id="2tigNu3_jmeNTcZIYjep-16" value="" style="edgeStyle=orthogonalEdgeStyle;rounded=0;orthogonalLoop=1;jettySize=auto;html=1;" edge="1" parent="1" source="2tigNu3_jmeNTcZIYjep-13" target="2tigNu3_jmeNTcZIYjep-15">
          <mxGeometry relative="1" as="geometry" />
        </mxCell>
        <mxCell id="2tigNu3_jmeNTcZIYjep-13" value="Digitar Data&amp;nbsp;&lt;br&gt;Nascimento" style="shape=parallelogram;perimeter=parallelogramPerimeter;whiteSpace=wrap;html=1;fixedSize=1;" vertex="1" parent="1">
          <mxGeometry x="294" y="330" width="120" height="60" as="geometry" />
        </mxCell>
        <mxCell id="2tigNu3_jmeNTcZIYjep-18" value="" style="edgeStyle=orthogonalEdgeStyle;rounded=0;orthogonalLoop=1;jettySize=auto;html=1;" edge="1" parent="1" source="2tigNu3_jmeNTcZIYjep-15" target="2tigNu3_jmeNTcZIYjep-17">
          <mxGeometry relative="1" as="geometry" />
        </mxCell>
        <mxCell id="2tigNu3_jmeNTcZIYjep-20" value="" style="edgeStyle=orthogonalEdgeStyle;rounded=0;orthogonalLoop=1;jettySize=auto;html=1;" edge="1" parent="1" source="2tigNu3_jmeNTcZIYjep-15" target="2tigNu3_jmeNTcZIYjep-19">
          <mxGeometry relative="1" as="geometry" />
        </mxCell>
        <mxCell id="2tigNu3_jmeNTcZIYjep-15" value="Idade &amp;gt; 18" style="rhombus;whiteSpace=wrap;html=1;" vertex="1" parent="1">
          <mxGeometry x="453" y="320" width="135" height="80" as="geometry" />
        </mxCell>
        <mxCell id="2tigNu3_jmeNTcZIYjep-17" value="SIM&lt;br&gt;Cadastro Permitido" style="rounded=0;whiteSpace=wrap;html=1;" vertex="1" parent="1">
          <mxGeometry x="640" y="330" width="120" height="60" as="geometry" />
        </mxCell>
        <mxCell id="2tigNu3_jmeNTcZIYjep-21" style="edgeStyle=orthogonalEdgeStyle;rounded=0;orthogonalLoop=1;jettySize=auto;html=1;exitX=0;exitY=0.5;exitDx=0;exitDy=0;entryX=0.5;entryY=1;entryDx=0;entryDy=0;" edge="1" parent="1" source="2tigNu3_jmeNTcZIYjep-19" target="2tigNu3_jmeNTcZIYjep-13">
          <mxGeometry relative="1" as="geometry">
            <mxPoint x="350" y="460" as="targetPoint" />
          </mxGeometry>
        </mxCell>
        <mxCell id="2tigNu3_jmeNTcZIYjep-19" value="NÃO&lt;br&gt;Idade Não Permitida" style="rounded=0;whiteSpace=wrap;html=1;" vertex="1" parent="1">
          <mxGeometry x="460.5" y="430" width="120" height="60" as="geometry" />
        </mxCell>
      </root>
    </mxGraphModel>
  </diagram>
</mxfile>
